# xmcd
#
# Track frame offsets:
#	150
#	15956
#	32073
#	48081
#
# Disc length: 889 seconds
#
# Revision: 0
# Processed by: cddbd v1.4PL0 Copyright (c) Steve Scherf et al.
# Submitted via: EasyCDDAExtractor 4.6.9.1
#
DISCID=1f037704
DTITLE=april kelloms - album demo
DYEAR=2002
DGENRE=country
TTITLE0=with you
TTITLE1=how could I ask for more
TTITLE2=somewhere over the rainbow
TTITLE3=any man of mine
EXTD=
EXTT0=
EXTT1=
EXTT2=
EXTT3=
PLAYORDER=
